<svg xmlns="http://www.w3.org/2000/svg" width="1200" height="630" viewBox="0 0 1200 630">
  <defs>
    <radialGradient id="glow" cx="50%" cy="0%" r="70%">
      <stop offset="0%" style="stop-color:#4afa7a;stop-opacity:0.08"/>
      <stop offset="100%" style="stop-color:#0a0a0a;stop-opacity:0"/>
    </radialGradient>
    <radialGradient id="glow2" cx="50%" cy="100%" r="50%">
      <stop offset="0%" style="stop-color:#4afa7a;stop-opacity:0.03"/>
      <stop offset="100%" style="stop-color:#0a0a0a;stop-opacity:0"/>
    </radialGradient>
  </defs>

  <!-- Background -->
  <rect width="1200" height="630" fill="#0a0a0a"/>
  <rect width="1200" height="630" fill="url(#glow)"/>
  <rect width="1200" height="630" fill="url(#glow2)"/>

  <!-- Grid lines -->
  <g stroke="#4afa7a" stroke-opacity="0.04" stroke-width="1">
    <line x1="0" y1="40" x2="1200" y2="40"/><line x1="0" y1="80" x2="1200" y2="80"/>
    <line x1="0" y1="120" x2="1200" y2="120"/><line x1="0" y1="160" x2="1200" y2="160"/>
    <line x1="0" y1="200" x2="1200" y2="200"/><line x1="0" y1="240" x2="1200" y2="240"/>
    <line x1="0" y1="280" x2="1200" y2="280"/><line x1="0" y1="320" x2="1200" y2="320"/>
    <line x1="0" y1="360" x2="1200" y2="360"/><line x1="0" y1="400" x2="1200" y2="400"/>
    <line x1="0" y1="440" x2="1200" y2="440"/><line x1="0" y1="480" x2="1200" y2="480"/>
    <line x1="0" y1="520" x2="1200" y2="520"/><line x1="0" y1="560" x2="1200" y2="560"/>
    <line x1="0" y1="600" x2="1200" y2="600"/>
    <line x1="40" y1="0" x2="40" y2="630"/><line x1="80" y1="0" x2="80" y2="630"/>
    <line x1="120" y1="0" x2="120" y2="630"/><line x1="160" y1="0" x2="160" y2="630"/>
    <line x1="200" y1="0" x2="200" y2="630"/><line x1="240" y1="0" x2="240" y2="630"/>
    <line x1="280" y1="0" x2="280" y2="630"/><line x1="320" y1="0" x2="320" y2="630"/>
    <line x1="360" y1="0" x2="360" y2="630"/><line x1="400" y1="0" x2="400" y2="630"/>
    <line x1="440" y1="0" x2="440" y2="630"/><line x1="480" y1="0" x2="480" y2="630"/>
    <line x1="520" y1="0" x2="520" y2="630"/><line x1="560" y1="0" x2="560" y2="630"/>
    <line x1="600" y1="0" x2="600" y2="630"/><line x1="640" y1="0" x2="640" y2="630"/>
    <line x1="680" y1="0" x2="680" y2="630"/><line x1="720" y1="0" x2="720" y2="630"/>
    <line x1="760" y1="0" x2="760" y2="630"/><line x1="800" y1="0" x2="800" y2="630"/>
    <line x1="840" y1="0" x2="840" y2="630"/><line x1="880" y1="0" x2="880" y2="630"/>
    <line x1="920" y1="0" x2="920" y2="630"/><line x1="960" y1="0" x2="960" y2="630"/>
    <line x1="1000" y1="0" x2="1000" y2="630"/><line x1="1040" y1="0" x2="1040" y2="630"/>
    <line x1="1080" y1="0" x2="1080" y2="630"/><line x1="1120" y1="0" x2="1120" y2="630"/>
    <line x1="1160" y1="0" x2="1160" y2="630"/>
  </g>

  <!-- Border -->
  <rect x="1" y="1" width="1198" height="628" fill="none" stroke="#222" stroke-width="2"/>

  <!-- Eyebrow -->
  <text x="600" y="115" text-anchor="middle" font-family="'SF Mono', 'Fira Code', monospace" font-size="20" fill="#4afa7a" letter-spacing="3">LAZYPI</text>

  <!-- Logo -->
  <text x="600" y="310" text-anchor="middle" font-family="'SF Mono', 'Fira Code', monospace" font-size="160" font-weight="800" letter-spacing="-6">
    <tspan fill="#f0f0f0">Pi</tspan><tspan fill="#4afa7a">Tube</tspan>
  </text>

  <!-- Tagline -->
  <text x="600" y="390" text-anchor="middle" font-family="'SF Mono', 'Fira Code', monospace" font-size="38" fill="#aaa">Tutorials, talks, and demos</text>
  <text x="600" y="445" text-anchor="middle" font-family="'SF Mono', 'Fira Code', monospace" font-size="38" fill="#d0d0d0">
    from the <tspan fill="#4afa7a">Pi community.</tspan>
  </text>

  <!-- lazypi.org -->
  <text x="600" y="575" text-anchor="middle" font-family="'SF Mono', 'Fira Code', monospace" font-size="26" fill="#ffffff">lazypi.org/videos</text>
</svg>
